HIERARCHY
ROOT Hips
{
	OFFSET 0.000000 83.214638 0.000000
	CHANNELS 6 Xposition Yposition Zposition Xrotation Yrotation Zrotation
	JOINT Pelvis
	{
		OFFSET 0.000000 0.000000 0.000000
		CHANNELS 3 Xrotation Yrotation Zrotation
		JOINT LeftUpLeg
		{
			OFFSET 8.479700 -4.795502 -0.379100
			CHANNELS 3 Xrotation Yrotation Zrotation
			JOINT LeftLeg
			{
				OFFSET 0.024144 -32.555107 0.112900
				CHANNELS 3 Xrotation Yrotation Zrotation
				JOINT LeftFoot
				{
					OFFSET -0.024144 -32.638630 -3.012600
					CHANNELS 3 Xrotation Yrotation Zrotation
					JOINT LeftToeBase
					{
						OFFSET 0.970200 -13.225400 11.864200
						CHANNELS 3 Xrotation Yrotation Zrotation
						End Site
						{
							OFFSET 0.000000 12.319262 0.000000
						}
					}
					JOINT LFootTongue
					{
						OFFSET 1.142400 -1.059800 6.665200
						CHANNELS 3 Xrotation Yrotation Zrotation
						End Site
						{
							OFFSET 0.000000 12.319262 0.000000
						}
					}
				}
				JOINT LeftPantLeg
				{
					OFFSET 0.918482 -16.533964 -2.284700
					CHANNELS 3 Xrotation Yrotation Zrotation
					End Site
					{
						OFFSET 0.350399 24.744368 0.000000
					}
				}
			}
		}
		JOINT RightUpLeg
		{
			OFFSET -8.479700 -4.795502 -0.379100
			CHANNELS 3 Xrotation Yrotation Zrotation
			JOINT RightLeg
			{
				OFFSET -0.023144 -32.555092 0.112900
				CHANNELS 3 Xrotation Yrotation Zrotation
				JOINT RightFoot
				{
					OFFSET 0.023144 -32.638641 -3.012700
					CHANNELS 3 Xrotation Yrotation Zrotation
					JOINT RightToeBase
					{
						OFFSET -0.970200 -13.225400 11.864200
						CHANNELS 3 Xrotation Yrotation Zrotation
						End Site
						{
							OFFSET 0.000000 12.319244 0.000000
						}
					}
					JOINT RFootTongue
					{
						OFFSET -1.142200 -1.059800 6.665200
						CHANNELS 3 Xrotation Yrotation Zrotation
						End Site
						{
							OFFSET 0.000000 12.319243 0.000000
						}
					}
				}
				JOINT RightPantLeg
				{
					OFFSET -0.919482 -16.533978 -2.284800
					CHANNELS 3 Xrotation Yrotation Zrotation
					End Site
					{
						OFFSET -0.350400 24.744419 0.000000
					}
				}
			}
		}
	}
	JOINT Spine
	{
		OFFSET 0.000000 7.722000 1.166200
		CHANNELS 3 Xrotation Yrotation Zrotation
		JOINT Spine1
		{
			OFFSET 0.000000 12.024101 0.248800
			CHANNELS 3 Xrotation Yrotation Zrotation
			JOINT Spine2
			{
				OFFSET 0.000000 11.502998 -0.491200
				CHANNELS 3 Xrotation Yrotation Zrotation
				JOINT Neck
				{
					OFFSET 0.000000 18.430702 -3.123100
					CHANNELS 3 Xrotation Yrotation Zrotation
					JOINT Head
					{
						OFFSET 0.000000 9.051102 1.034000
						CHANNELS 3 Xrotation Yrotation Zrotation
						JOINT HairB
						{
							OFFSET 0.208400 24.786102 24.822300
							CHANNELS 3 Xrotation Yrotation Zrotation
							End Site
							{
								OFFSET 0.000000 32.263779 0.000000
							}
						}
						JOINT HairA
						{
							OFFSET -7.081100 24.428299 23.196600
							CHANNELS 3 Xrotation Yrotation Zrotation
							End Site
							{
								OFFSET 0.000000 32.263779 0.000000
							}
						}
						JOINT Hat
						{
							OFFSET 16.728800 15.048294 -15.439601
							CHANNELS 3 Xrotation Yrotation Zrotation
							End Site
							{
								OFFSET 0.000000 32.263779 0.000000
							}
						}
					}
				}
				JOINT LeftShoulder
				{
					OFFSET 6.197800 13.665199 -4.064700
					CHANNELS 3 Xrotation Yrotation Zrotation
					JOINT LeftArm
					{
						OFFSET 7.778100 -0.187103 -1.709300
						CHANNELS 3 Xrotation Yrotation Zrotation
						JOINT LeftForeArm
						{
							OFFSET 22.049376 0.000000 0.000000
							CHANNELS 3 Xrotation Yrotation Zrotation
							JOINT LeftHand
							{
								OFFSET 23.009392 0.000000 0.000000
								CHANNELS 3 Xrotation Yrotation Zrotation
								JOINT LeftHandThumb1
								{
									OFFSET 3.507191 -2.063065 3.133727
									CHANNELS 3 Xrotation Yrotation Zrotation
									JOINT LeftHandThumb2
									{
										OFFSET 3.101337 -1.790558 1.790558
										CHANNELS 3 Xrotation Yrotation Zrotation
										JOINT LeftHandThumb3
										{
											OFFSET 3.058640 -1.765907 1.765906
											CHANNELS 3 Xrotation Yrotation Zrotation
											End Site
											{
												OFFSET -0.415260 3.926476 -0.049563
											}
										}
									}
								}
								JOINT LeftHandIndex1
								{
									OFFSET 11.334419 -0.901459 3.706815
									CHANNELS 3 Xrotation Yrotation Zrotation
									JOINT LeftHandIndex2
									{
										OFFSET 3.283112 0.000000 0.000000
										CHANNELS 3 Xrotation Yrotation Zrotation
										JOINT LeftHandIndex3
										{
											OFFSET 3.323853 0.000000 0.000000
											CHANNELS 3 Xrotation Yrotation Zrotation
											End Site
											{
												OFFSET -1.135597 3.097809 0.402452
											}
										}
									}
								}
								JOINT LeftHandMiddle1
								{
									OFFSET 11.335861 0.000000 0.000000
									CHANNELS 3 Xrotation Yrotation Zrotation
									JOINT LeftHandMiddle2
									{
										OFFSET 3.410492 0.000000 0.000000
										CHANNELS 3 Xrotation Yrotation Zrotation
										JOINT LeftHandMiddle3
										{
											OFFSET 3.312172 0.000000 0.000000
											CHANNELS 3 Xrotation Yrotation Zrotation
											End Site
											{
												OFFSET -1.150200 3.080154 0.400270
											}
										}
									}
								}
								JOINT LeftHandRing1
								{
									OFFSET 11.514786 -0.013176 -3.003090
									CHANNELS 3 Xrotation Yrotation Zrotation
									JOINT LeftHandRing2
									{
										OFFSET 3.053307 0.000000 0.000000
										CHANNELS 3 Xrotation Yrotation Zrotation
										JOINT LeftHandRing3
										{
											OFFSET 3.295807 0.000000 0.000000
											CHANNELS 3 Xrotation Yrotation Zrotation
											End Site
											{
												OFFSET -1.281006 3.013344 0.375733
											}
										}
									}
								}
								JOINT LeftHandPinky1
								{
									OFFSET 10.518692 -0.960396 -5.730441
									CHANNELS 3 Xrotation Yrotation Zrotation
									JOINT LeftHandPinky2
									{
										OFFSET 2.861649 0.000000 0.000000
										CHANNELS 3 Xrotation Yrotation Zrotation
										JOINT LeftHandPinky3
										{
											OFFSET 2.863380 0.000000 0.000000
											CHANNELS 3 Xrotation Yrotation Zrotation
											End Site
											{
												OFFSET -0.843597 2.711159 0.369971
											}
										}
									}
								}
							}
							JOINT LSleeve
							{
								OFFSET 6.676277 -0.344902 -1.011730
								CHANNELS 3 Xrotation Yrotation Zrotation
								End Site
								{
									OFFSET 0.000000 14.885353 0.000000
								}
							}
						}
					}
				}
				JOINT RightShoulder
				{
					OFFSET -6.197800 13.665199 -4.064700
					CHANNELS 3 Xrotation Yrotation Zrotation
					JOINT RightArm
					{
						OFFSET -7.778100 -0.187103 -1.709300
						CHANNELS 3 Xrotation Yrotation Zrotation
						JOINT RightForeArm
						{
							OFFSET -22.049376 0.000000 0.000000
							CHANNELS 3 Xrotation Yrotation Zrotation
							JOINT RightHand
							{
								OFFSET -23.009392 0.000000 0.000000
								CHANNELS 3 Xrotation Yrotation Zrotation
								JOINT RightHandThumb1
								{
									OFFSET -3.507191 -2.063065 3.133727
									CHANNELS 3 Xrotation Yrotation Zrotation
									JOINT RightHandThumb2
									{
										OFFSET -3.101337 -1.790558 1.790558
										CHANNELS 3 Xrotation Yrotation Zrotation
										JOINT RightHandThumb3
										{
											OFFSET -3.058640 -1.765907 1.765906
											CHANNELS 3 Xrotation Yrotation Zrotation
											End Site
											{
												OFFSET 0.415260 3.926476 -0.049563
											}
										}
									}
								}
								JOINT RightHandIndex1
								{
									OFFSET -11.334419 -0.901459 3.706815
									CHANNELS 3 Xrotation Yrotation Zrotation
									JOINT RightHandIndex2
									{
										OFFSET -3.283112 0.000000 0.000000
										CHANNELS 3 Xrotation Yrotation Zrotation
										JOINT RightHandIndex3
										{
											OFFSET -3.323853 0.000000 0.000000
											CHANNELS 3 Xrotation Yrotation Zrotation
											End Site
											{
												OFFSET 1.135597 3.097809 0.402452
											}
										}
									}
								}
								JOINT RightHandMiddle1
								{
									OFFSET -11.335861 0.000000 0.000000
									CHANNELS 3 Xrotation Yrotation Zrotation
									JOINT RightHandMiddle2
									{
										OFFSET -3.410492 0.000000 0.000000
										CHANNELS 3 Xrotation Yrotation Zrotation
										JOINT RightHandMiddle3
										{
											OFFSET -3.312172 0.000000 0.000000
											CHANNELS 3 Xrotation Yrotation Zrotation
											End Site
											{
												OFFSET 1.150200 3.080154 0.400270
											}
										}
									}
								}
								JOINT RightHandRing1
								{
									OFFSET -11.514786 -0.013176 -3.003090
									CHANNELS 3 Xrotation Yrotation Zrotation
									JOINT RightHandRing2
									{
										OFFSET -3.053307 0.000000 0.000000
										CHANNELS 3 Xrotation Yrotation Zrotation
										JOINT RightHandRing3
										{
											OFFSET -3.295807 0.000000 0.000000
											CHANNELS 3 Xrotation Yrotation Zrotation
											End Site
											{
												OFFSET 1.281006 3.013344 0.375733
											}
										}
									}
								}
								JOINT RightHandPinky1
								{
									OFFSET -10.518692 -0.960396 -5.730441
									CHANNELS 3 Xrotation Yrotation Zrotation
									JOINT RightHandPinky2
									{
										OFFSET -2.861649 0.000000 0.000000
										CHANNELS 3 Xrotation Yrotation Zrotation
										JOINT RightHandPinky3
										{
											OFFSET -2.863380 0.000000 0.000000
											CHANNELS 3 Xrotation Yrotation Zrotation
											End Site
											{
												OFFSET 0.843597 2.711159 0.369971
											}
										}
									}
								}
							}
							JOINT RSleeve
							{
								OFFSET -6.676277 -0.344902 -1.011730
								CHANNELS 3 Xrotation Yrotation Zrotation
								End Site
								{
									OFFSET 0.000000 14.885353 0.000000
								}
							}
						}
					}
				}
				JOINT Backpack
				{
					OFFSET 0.000000 -2.471497 36.677502
					CHANNELS 3 Xrotation Yrotation Zrotation
					End Site
					{
						OFFSET 0.000000 20.427315 0.000000
					}
				}
				JOINT Hood
				{
					OFFSET 0.000000 18.754097 -10.431000
					CHANNELS 3 Xrotation Yrotation Zrotation
					JOINT Hood1
					{
						OFFSET 0.000000 -5.011002 -7.685901
						CHANNELS 3 Xrotation Yrotation Zrotation
						End Site
						{
							OFFSET 0.000000 9.175140 0.000000
						}
					}
				}
				JOINT LHoodieString
				{
					OFFSET 5.250500 16.397697 3.089900
					CHANNELS 3 Xrotation Yrotation Zrotation
					JOINT LHoodieString1
					{
						OFFSET 0.257700 -6.364304 3.694600
						CHANNELS 3 Xrotation Yrotation Zrotation
						JOINT LHoodieString2
						{
							OFFSET 0.000000 -9.643799 2.679100
							CHANNELS 3 Xrotation Yrotation Zrotation
							End Site
							{
								OFFSET 0.000000 10.009018 0.000000
							}
						}
					}
				}
				JOINT RHoodieString
				{
					OFFSET -5.250500 16.397697 3.089900
					CHANNELS 3 Xrotation Yrotation Zrotation
					JOINT RHoodieString1
					{
						OFFSET -0.257700 -6.364304 3.694600
						CHANNELS 3 Xrotation Yrotation Zrotation
						JOINT RHoodieString2
						{
							OFFSET 0.000000 -9.643799 2.679100
							CHANNELS 3 Xrotation Yrotation Zrotation
							End Site
							{
								OFFSET 0.000000 10.009018 0.000000
							}
						}
					}
				}
			}
			JOINT LBackpack_Strap
			{
				OFFSET 15.223200 -7.719803 -6.610900
				CHANNELS 3 Xrotation Yrotation Zrotation
				End Site
				{
					OFFSET 0.000000 16.040596 0.000000
				}
			}
			JOINT RBackpack_Strap
			{
				OFFSET -15.223000 -7.719803 -6.610900
				CHANNELS 3 Xrotation Yrotation Zrotation
				End Site
				{
					OFFSET 0.000000 16.040596 0.000000
				}
			}
		}
	}
	JOINT BoyFacialAnim_Joint
	{
		OFFSET 1.000000 -82.208099 -1.550900
		CHANNELS 3 Xrotation Yrotation Zrotation
		End Site
		{
			OFFSET 0.000000 30.012791 0.000000
		}
	}
}
MOTION
Frames: 5
Frame Time: 0.016667
9.545137 73.832664 -6.759781 55.101189 -6.934049 4.433653 -0.000000 0.000000 -0.000000 -88.737777 -5.808505 5.313397 50.021491 10.047073 -4.427561 -13.348020 13.678501 -2.506919 0.000000 0.000001 -0.000000 0.000000 0.000001 -0.000000 -0.000000 -0.000000 -0.000000 -63.164346 6.972983 -5.485845 64.374799 2.397972 -4.945316 0.396704 -2.962832 5.719328 -0.000000 -0.000001 -0.000000 -0.000000 -0.000001 -0.000000 0.000003 -0.000001 -0.000001 6.431843 0.371776 -0.816255 15.063523 1.404745 -0.847226 25.668443 1.557015 -0.177842 -24.368121 -0.913412 3.954656 -18.158087 5.659348 -4.296261 0.000002 0.000000 -0.000000 0.000002 0.000000 -0.000000 0.000002 0.000000 -0.000000 3.359792 -11.332868 0.850119 -25.850601 -35.679720 -27.707661 -0.000007 -43.985261 -0.000001 -8.602291 -8.370904 31.241196 0.699765 -6.020118 19.223933 19.074676 26.512428 -1.026348 -0.000001 -0.000001 -0.000002 0.483452 4.482284 -23.673238 0.882579 3.094042 -31.835098 0.000000 0.000000 -0.000004 2.472060 8.725186 -25.286125 1.505512 3.921810 -41.988824 -0.000000 0.000002 -0.000003 3.074532 8.498772 -34.787629 1.107462 3.429307 -35.785943 -0.000002 0.000001 -0.000002 3.603295 12.761703 -45.581298 0.673760 2.729598 -27.725809 0.000001 -0.000000 0.000003 -0.000000 -0.000000 -0.000000 0.611288 31.893640 8.610638 -33.996823 35.443764 11.882230 -0.000004 24.919385 -0.000001 0.648385 -4.749848 3.169657 -0.201459 3.035673 -7.196450 8.074862 6.487021 -14.042696 0.000000 0.000001 -0.000002 -3.681016 8.703994 18.305346 0.000003 -0.000006 -0.000015 -0.000000 0.000001 0.000000 -0.122555 9.697887 1.310635 0.695575 -2.450426 31.689824 -0.000001 -0.000000 -0.000002 -0.568144 7.106776 4.105421 0.435102 -1.967344 24.939888 0.000001 0.000001 0.000002 -8.414107 -1.159779 -7.809536 0.946322 -2.816020 37.143668 0.000001 -0.000001 0.000004 -0.000002 -0.000000 -0.000000 0.000001 0.000000 -0.000000 0.000001 0.000000 -0.000000 0.000001 0.000000 -0.000000 0.000001 0.000000 -0.000000 0.000001 0.000000 -0.000000 0.000001 -0.000000 -0.000000 0.000001 0.000000 -0.000000 0.000001 0.000000 -0.000000 0.000001 -0.000000 -0.000000 0.000001 0.000000 0.000000 0.000001 0.000000 0.000000 -0.000000 0.000000 -0.000000 
9.512324 74.433746 -6.622765 53.789119 -7.383452 4.359687 -0.000001 -0.000001 0.000000 -86.224349 -5.696547 5.698082 48.325897 10.056071 -4.434613 -12.806666 13.820780 -2.420095 0.000000 -0.000001 -0.000000 0.000000 -0.000001 -0.000000 -0.000001 0.000000 0.000000 -64.831520 7.048640 -5.434296 65.179382 1.591268 -4.662425 -1.044149 -2.964548 5.552775 0.000004 -0.000001 -0.000001 0.000004 -0.000001 -0.000001 -0.000002 0.000001 0.000001 6.387074 0.318143 -0.780509 14.959057 1.376009 -0.738084 25.530284 1.548437 -0.069472 -24.070874 -0.806833 3.898660 -17.895406 6.094575 -4.244755 -0.000003 0.000000 -0.000000 -0.000003 0.000000 -0.000000 -0.000003 0.000000 -0.000000 3.327514 -11.257726 0.298058 -24.534524 -35.097316 -28.878006 -0.000011 -43.052766 0.000001 -8.186015 -8.336848 30.259043 0.699766 -6.020125 19.223936 19.074673 26.512445 -1.026333 -0.000002 0.000004 -0.000004 0.483153 4.482392 -23.673092 0.882604 3.094069 -31.835208 0.000002 0.000001 -0.000002 2.472247 8.725275 -25.287809 1.505395 3.921688 -41.987126 0.000003 -0.000001 0.000002 3.074718 8.498852 -34.789582 1.107353 3.429146 -35.783993 -0.000000 0.000001 -0.000005 3.603277 12.761690 -45.581281 0.673743 2.729615 -27.725799 0.000002 0.000004 -0.000003 -0.000001 0.000000 0.000001 0.454113 31.771882 9.248693 -33.054803 34.716871 13.054991 0.000003 24.898768 -0.000007 0.795422 -4.377394 5.700460 -0.201466 3.035686 -7.196426 8.074872 6.487030 -14.042704 0.000004 -0.000001 0.000000 -3.681001 8.703988 18.305337 -0.000003 0.000001 0.000011 -0.000005 0.000000 0.000002 -0.122528 9.697894 1.310563 0.695567 -2.450409 31.689899 0.000002 -0.000001 -0.000002 -0.568112 7.106789 4.105291 0.435115 -1.967338 24.940050 0.000001 -0.000000 0.000000 -8.414094 -1.159791 -7.809537 0.946331 -2.816023 37.143672 -0.000002 0.000001 -0.000001 0.000001 0.000000 0.000000 0.000000 -0.000000 0.000000 0.000000 -0.000000 0.000000 0.000000 -0.000000 0.000000 0.000000 -0.000000 0.000000 0.000000 -0.000000 0.000000 0.000000 0.000000 0.000000 0.000000 -0.000000 0.000000 0.000000 -0.000000 0.000000 0.000000 0.000000 0.000000 -0.000003 -0.000000 0.000000 -0.000003 -0.000000 0.000000 -0.000001 -0.000001 0.000000 
9.473781 75.021126 -6.470291 52.448924 -7.860434 4.259329 0.000000 0.000001 -0.000001 -83.678560 -5.549772 6.127697 46.647887 10.025209 -4.452333 -12.292741 13.969070 -2.325181 -0.000000 0.000000 -0.000000 -0.000000 0.000000 -0.000000 -0.000000 -0.000000 -0.000000 -66.161379 6.930012 -5.487227 65.215076 0.260848 -4.367312 -2.456398 -2.946994 5.168595 -0.000002 0.000001 -0.000000 -0.000002 0.000001 -0.000000 -0.000007 -0.000001 -0.000001 6.346443 0.276412 -0.723518 14.862664 1.352667 -0.606154 25.397860 1.548556 0.060529 -23.787341 -0.699831 3.812281 -17.607282 6.465520 -4.232233 0.000001 0.000000 -0.000000 0.000001 0.000000 -0.000000 0.000001 0.000000 -0.000000 3.282055 -11.154454 -0.322865 -23.304153 -34.650147 -30.083312 -0.000012 -41.915904 -0.000007 -7.881272 -8.386937 29.199704 0.699760 -6.020131 19.223917 19.074652 26.512465 -1.026332 0.000005 -0.000001 -0.000007 0.482885 4.482508 -23.672954 0.882598 3.094071 -31.835303 -0.000003 -0.000000 -0.000002 2.472428 8.725393 -25.289499 1.505273 3.921544 -41.985439 -0.000000 0.000001 0.000000 3.074916 8.498944 -34.791508 1.107229 3.428974 -35.782033 -0.000001 0.000000 -0.000000 3.603273 12.761701 -45.581278 0.673777 2.729600 -27.725811 -0.000000 0.000001 -0.000005 0.000001 0.000000 0.000001 0.383119 31.571566 9.612377 -32.161903 33.923699 14.344968 0.000006 24.743670 0.000002 0.798846 -3.969768 7.957805 -0.201458 3.035681 -7.196444 8.074861 6.487012 -14.042685 0.000000 0.000001 -0.000001 -3.680996 8.703984 18.305327 -0.000006 0.000007 0.000022 0.000002 -0.000003 0.000005 -0.122515 9.697897 1.310513 0.695579 -2.450436 31.689947 -0.000002 -0.000001 -0.000000 -0.568083 7.106797 4.105143 0.435115 -1.967361 24.940178 0.000002 0.000001 0.000000 -8.414097 -1.159786 -7.809549 0.946321 -2.816025 37.143651 0.000001 -0.000002 -0.000000 -0.000001 -0.000000 -0.000000 0.000000 -0.000000 0.000001 0.000000 -0.000000 0.000001 0.000000 -0.000000 0.000001 0.000000 -0.000000 0.000001 0.000000 -0.000000 0.000001 -0.000000 -0.000000 0.000001 0.000000 -0.000000 0.000001 0.000000 -0.000000 0.000001 -0.000000 -0.000000 0.000001 0.000002 0.000000 -0.000000 0.000002 0.000000 -0.000000 0.000000 0.000001 -0.000001 
9.426607 75.596199 -6.305260 51.123389 -8.355586 4.110296 0.000000 -0.000001 0.000000 -81.144614 -5.385142 6.604797 44.974887 9.994910 -4.471664 -11.786981 14.077876 -2.238350 -0.000000 0.000002 -0.000000 -0.000000 0.000002 -0.000000 -0.000000 0.000000 -0.000000 -67.181850 6.602019 -5.591747 64.554741 -1.267139 -4.052818 -3.830547 -2.905213 4.586071 0.000000 -0.000000 0.000001 0.000000 -0.000000 0.000001 -0.000000 -0.000000 -0.000001 6.299075 0.249766 -0.649749 14.751819 1.342871 -0.457023 25.248578 1.564636 0.205129 -23.519845 -0.601491 3.713254 -17.310548 6.769748 -4.222798 -0.000002 -0.000000 -0.000000 -0.000002 -0.000000 -0.000000 -0.000002 -0.000000 -0.000000 3.231801 -11.021962 -0.952626 -22.238210 -34.231549 -31.346631 -0.000009 -40.754520 0.000002 -7.654838 -8.345748 28.070047 0.699771 -6.020112 19.223924 19.074661 26.512426 -1.026329 0.000000 -0.000003 -0.000004 0.482589 4.482627 -23.672823 0.882619 3.094098 -31.835416 -0.000001 -0.000001 -0.000000 2.472623 8.725474 -25.291233 1.505146 3.921411 -41.983711 0.000001 0.000001 -0.000001 3.075119 8.499035 -34.793469 1.107116 3.428824 -35.780055 0.000001 0.000001 -0.000000 3.603283 12.761706 -45.581295 0.673751 2.729604 -27.725818 -0.000005 -0.000001 -0.000002 0.000000 0.000000 0.000000 0.372569 31.286412 9.795017 -31.370567 33.055127 15.760127 0.000004 24.457929 0.000009 0.679518 -3.567366 9.936563 -0.201459 3.035671 -7.196457 8.074862 6.487014 -14.042694 0.000002 -0.000000 0.000002 -3.681008 8.703985 18.305329 -0.000002 -0.000003 0.000014 0.000003 0.000001 0.000004 -0.122501 9.697888 1.310428 0.695586 -2.450435 31.690012 -0.000000 0.000003 0.000000 -0.568061 7.106799 4.104977 0.435131 -1.967380 24.940323 0.000000 -0.000002 0.000000 -8.414102 -1.159784 -7.809560 0.946336 -2.816027 37.143648 -0.000005 0.000004 -0.000001 0.000000 0.000000 0.000000 0.000000 -0.000000 -0.000000 0.000000 -0.000000 -0.000000 0.000000 -0.000000 -0.000000 0.000000 -0.000000 -0.000000 0.000000 -0.000000 -0.000000 0.000000 0.000000 -0.000000 0.000000 -0.000000 -0.000000 0.000000 -0.000000 -0.000000 0.000000 0.000000 -0.000000 0.000001 0.000000 -0.000000 0.000001 0.000000 -0.000000 0.000000 -0.000001 0.000000 
9.365914 76.153641 -6.129799 49.853025 -8.850726 3.903186 -0.000001 -0.000001 0.000001 -78.676095 -5.225439 7.110650 43.312886 9.966535 -4.471172 -11.278124 14.160813 -2.181252 -0.000000 0.000002 -0.000000 -0.000000 0.000002 -0.000000 -0.000001 -0.000000 0.000000 -67.917311 6.098751 -5.713912 63.254061 -2.473261 -3.712470 -5.067133 -2.852471 4.023142 0.000001 -0.000000 -0.000001 0.000001 -0.000000 -0.000001 -0.000000 0.000001 0.000000 6.231492 0.235499 -0.568462 14.598351 1.342922 -0.303597 25.054396 1.591056 0.352063 -23.262086 -0.523336 3.642465 -17.013875 7.039135 -4.179063 -0.000001 -0.000000 -0.000001 -0.000001 -0.000000 -0.000001 -0.000001 -0.000000 -0.000001 3.185952 -10.858426 -1.510808 -21.370301 -33.790404 -32.751317 -0.000009 -39.584327 -0.000004 -7.431457 -8.192867 26.988635 0.699745 -6.020110 19.223945 19.074669 26.512412 -1.026329 -0.000001 0.000002 -0.000001 0.482305 4.482722 -23.672710 0.882620 3.094106 -31.835532 -0.000001 -0.000000 -0.000000 2.472806 8.725558 -25.292933 1.505033 3.921285 -41.982028 0.000001 -0.000002 0.000005 3.075314 8.499103 -34.795419 1.106976 3.428639 -35.778095 0.000001 0.000002 -0.000000 3.603265 12.761689 -45.581285 0.673759 2.729612 -27.725819 0.000000 0.000001 -0.000003 -0.000002 0.000000 -0.000001 0.370541 30.945934 9.971298 -30.635622 32.079933 17.167365 -0.000008 24.089833 0.000003 0.446890 -3.220465 11.623275 -0.201457 3.035675 -7.196432 8.074872 6.487014 -14.042710 -0.000002 -0.000000 -0.000002 -3.681007 8.703979 18.305324 -0.000004 0.000008 0.000008 0.000001 -0.000001 0.000002 -0.122482 9.697901 1.310401 0.695579 -2.450439 31.690066 -0.000001 0.000001 0.000005 -0.568023 7.106811 4.104862 0.435127 -1.967383 24.940477 -0.000001 -0.000000 0.000000 -8.414095 -1.159795 -7.809551 0.946321 -2.816022 37.143668 -0.000000 0.000001 0.000002 -0.000002 -0.000000 0.000000 0.000000 0.000000 0.000000 0.000000 0.000000 0.000000 0.000000 0.000000 0.000000 0.000000 0.000000 0.000000 0.000000 0.000000 -0.000001 0.000000 -0.000000 -0.000001 0.000000 0.000000 0.000000 0.000000 0.000000 -0.000001 0.000000 -0.000000 -0.000001 -0.000001 0.000000 0.000000 -0.000001 0.000000 0.000000 -0.000001 -0.000001 0.000001 
